<svg width="22" height="22" viewBox="0 0 22 22" fill="none" xmlns="http://www.w3.org/2000/svg">
<path d="M6.0072 16.9499H14.1021C14.699 16.95 15.209 16.5193 15.3088 15.9308L17.4605 3.28383C17.5607 2.69561 18.0705 2.26542 18.6672 2.26554H19.4701" stroke="#000" stroke-width="1.439" stroke-linecap="round" stroke-linejoin="round"/>
<path d="M7.53571 18.7859C7.7047 18.7859 7.84169 18.9229 7.84169 19.0919C7.84169 19.2608 7.7047 19.3978 7.53571 19.3978C7.36673 19.3978 7.22974 19.2608 7.22974 19.0919C7.22974 18.9229 7.36673 18.7859 7.53571 18.7859" stroke="#000" stroke-width="1.439" stroke-linecap="round" stroke-linejoin="round"/>
<path d="M13.6553 18.7859C13.8243 18.7859 13.9613 18.9229 13.9613 19.0919C13.9613 19.2608 13.8243 19.3978 13.6553 19.3978C13.4864 19.3978 13.3494 19.2608 13.3494 19.0919C13.3494 18.9229 13.4864 18.7859 13.6553 18.7859" stroke="#000" stroke-width="1.439" stroke-linecap="round" stroke-linejoin="round"/>
<path d="M15.7594 13.2783H5.91024C4.78725 13.2782 3.80839 12.5139 3.53587 11.4245L2.35277 6.69211C2.30702 6.50923 2.34812 6.31547 2.46417 6.1669C2.58021 6.01834 2.75825 5.93155 2.94677 5.93166H17.0086" stroke="#000" stroke-width="1.439" stroke-linecap="round" stroke-linejoin="round"/>
</svg>
